<svg width="24" height="23" viewBox="0 0 24 23" fill="none" xmlns="http://www.w3.org/2000/svg">
<g opacity="0.2">
<path opacity="0.2" d="M12 1V1.73835" stroke="#2FAA8D" stroke-width="2" stroke-linecap="square" stroke-linejoin="round"/>
</g>
<path d="M8.8913 1.4949L9.12091 2.19751" stroke="#2FAA8D" stroke-width="2" stroke-linecap="square" stroke-linejoin="round"/>
<path d="M6.10559 2.92068L6.54145 3.51741" stroke="#2FAA8D" stroke-width="2" stroke-linecap="square" stroke-linejoin="round"/>
<path d="M3.8974 5.13727L4.49688 5.57038" stroke="#2FAA8D" stroke-width="2" stroke-linecap="square" stroke-linejoin="round"/>
<path d="M2.48254 7.92841L3.18652 8.15527" stroke="#2FAA8D" stroke-width="2" stroke-linecap="square" stroke-linejoin="round"/>
<path d="M2 11.0193L2.73835 11.0179" stroke="#2FAA8D" stroke-width="2" stroke-linecap="square" stroke-linejoin="round"/>
<path d="M2.49487 14.1088L3.19747 13.8792" stroke="#2FAA8D" stroke-width="2" stroke-linecap="square" stroke-linejoin="round"/>
<path d="M3.92072 16.8932L4.51745 16.4573" stroke="#2FAA8D" stroke-width="2" stroke-linecap="square" stroke-linejoin="round"/>
<g opacity="0.2">
<path opacity="0.2" d="M6.13721 19.1013L6.57032 18.5032" stroke="#2FAA8D" stroke-width="2" stroke-linecap="square" stroke-linejoin="round"/>
</g>
<g opacity="0.2">
<path opacity="0.2" d="M8.92834 20.5161L9.15522 19.8135" stroke="#2FAA8D" stroke-width="2" stroke-linecap="square" stroke-linejoin="round"/>
</g>
<g opacity="0.2">
<path opacity="0.2" d="M12.0193 21L12.0179 20.2603" stroke="#2FAA8D" stroke-width="2" stroke-linecap="square" stroke-linejoin="round"/>
</g>
<g opacity="0.2">
<path opacity="0.2" d="M15.1074 20.5036L14.8778 19.8024" stroke="#2FAA8D" stroke-width="2" stroke-linecap="square" stroke-linejoin="round"/>
</g>
<g opacity="0.2">
<path opacity="0.2" d="M17.8931 19.0778L17.4572 18.4811" stroke="#2FAA8D" stroke-width="2" stroke-linecap="square" stroke-linejoin="round"/>
</g>
<g opacity="0.2">
<path opacity="0.2" d="M20.1013 16.8615L19.5018 16.4284" stroke="#2FAA8D" stroke-width="2" stroke-linecap="square" stroke-linejoin="round"/>
</g>
<g opacity="0.2">
<path opacity="0.2" d="M21.5161 14.0717L20.8135 13.8449" stroke="#2FAA8D" stroke-width="2" stroke-linecap="square" stroke-linejoin="round"/>
</g>
<g opacity="0.2">
<path opacity="0.2" d="M22.0001 10.9807L21.2604 10.9821" stroke="#2FAA8D" stroke-width="2" stroke-linecap="square" stroke-linejoin="round"/>
</g>
<g opacity="0.2">
<path opacity="0.2" d="M21.5038 7.8913L20.8012 8.12091" stroke="#2FAA8D" stroke-width="2" stroke-linecap="square" stroke-linejoin="round"/>
</g>
<g opacity="0.2">
<path opacity="0.2" d="M20.0778 5.1055L19.4811 5.54136" stroke="#2FAA8D" stroke-width="2" stroke-linecap="square" stroke-linejoin="round"/>
</g>
<g opacity="0.2">
<path opacity="0.2" d="M17.8615 2.89734L17.4283 3.49682" stroke="#2FAA8D" stroke-width="2" stroke-linecap="square" stroke-linejoin="round"/>
</g>
<g opacity="0.2">
<path opacity="0.2" d="M15.0717 1.48264L14.8448 2.18661" stroke="#2FAA8D" stroke-width="2" stroke-linecap="square" stroke-linejoin="round"/>
</g>
<path d="M6.13721 19.1013L6.57032 18.5032" stroke="#2FAA8D" stroke-width="2" stroke-linecap="square" stroke-linejoin="round"/>
<path d="M8.92834 20.5161L9.15522 19.8135" stroke="#2FAA8D" stroke-width="2" stroke-linecap="square" stroke-linejoin="round"/>
<path d="M12.0193 21L12.0179 20.2603" stroke="#2FAA8D" stroke-width="2" stroke-linecap="square" stroke-linejoin="round"/>
<path d="M15.1074 20.5036L14.8778 19.8024" stroke="#2FAA8D" stroke-width="2" stroke-linecap="square" stroke-linejoin="round"/>
<path d="M17.8931 19.0778L17.4572 18.4811" stroke="#2FAA8D" stroke-width="2" stroke-linecap="square" stroke-linejoin="round"/>
<path d="M20.1013 16.8615L19.5018 16.4284" stroke="#2FAA8D" stroke-width="2" stroke-linecap="square" stroke-linejoin="round"/>
<path d="M21.5161 14.0717L20.8135 13.8449" stroke="#2FAA8D" stroke-width="2" stroke-linecap="square" stroke-linejoin="round"/>
<path d="M22.0001 10.9807L21.2604 10.9821" stroke="#2FAA8D" stroke-width="2" stroke-linecap="square" stroke-linejoin="round"/>
<path d="M21.5038 7.8913L20.8012 8.12091" stroke="#2FAA8D" stroke-width="2" stroke-linecap="square" stroke-linejoin="round"/>
<path d="M20.0778 5.1055L19.4811 5.54136" stroke="#2FAA8D" stroke-width="2" stroke-linecap="square" stroke-linejoin="round"/>
<path d="M17.8615 2.89734L17.4283 3.49682" stroke="#2FAA8D" stroke-width="2" stroke-linecap="square" stroke-linejoin="round"/>
<path d="M15.0717 1.48264L14.8448 2.18661" stroke="#2FAA8D" stroke-width="2" stroke-linecap="square" stroke-linejoin="round"/>
<path d="M11.9904 1V1.73835" stroke="#2FAA8D" stroke-width="2" stroke-linecap="square" stroke-linejoin="round"/>
</svg>
